PathFileType	4	(X/Y/Z)	C:\Users\°ÂÌØÂü\Desktop\20210112\bx_n_5_902-Unnamed.trc
DataRate	CameraRate	NumFrames	NumMarkers	Units	OrigDataRate	OrigDataStartFrame	OrigNumFrames
50.00	50.00	       8	0	mm	50.00	1	       545
Frame#	Time	
		

1	0.000	-704.36810	298.53061	1528.70068	-580.11871	-0.38113	1053.02820	-670.47266	290.91837	871.57709	-571.54950	1.59129	803.14490	-575.74097	226.24048	791.12299	-681.29761	274.22812	742.38599	-714.67657	254.28568	642.57257	-683.12158	146.97919	575.42798	-719.63751	249.71942	575.80377	-657.15179	20.87893	518.31622	-667.41882	208.17543	533.55383	-761.13153	259.44424	502.61401	-792.39374	38.57334	174.08691	-718.87738	72.52651	215.26569	-647.78192	-65.12731	164.01096	-712.92108	153.38416	216.17763	-767.14813	227.33167	205.56270	-605.68646	-71.32406	159.22910	-882.56006	296.11014	144.61603	-674.16406	56.04222	156.15053	-598.65948	29.07159	166.02235	-547.24554	-26.44571	164.24471	-517.75922	-72.63500	143.86961	-674.88043	171.04579	157.78578	-591.22357	217.54524	173.56474	-623.58972	305.91846	158.95811	-528.25165	304.22119	146.45491	-680.03680	129.34253	1848.43359				-589.76062	113.16866	1356.78564	-795.87170	178.54128	184.25214	-554.68774	254.93451	164.60617	-659.87964	297.44882	158.16010	-692.62469	-63.78756	1538.07629	-783.78064	100.36467	1049.82458	-747.51440	-43.40470	489.36893	-756.08698	-18.25119	207.76276	-876.00275	-78.74174	141.50209	-644.48157	-68.69016	872.18250	-667.13995	-57.38016	756.86371	-694.04071	-31.94016	616.84973	-703.16626	-29.56713	568.75769	-586.45862	247.43726	1063.92334	-685.19281	78.18637	573.56549	
2	0.020	-704.07446	298.53470	1528.85327	-579.77124	-0.36095	1053.08203	-670.26410	291.12906	871.77759	-571.95966	1.77047	802.95404	-575.66614	226.01227	791.12811	-681.00110	274.33939	742.48676	-714.76447	254.25488	642.50824	-683.13422	147.06892	575.59473	-719.54291	249.53999	575.62103	-656.28314	20.35372	518.57819	-667.48114	208.30247	533.48840	-761.20807	259.47617	502.74057	-792.59564	38.38425	174.29674	-718.87738	72.52651	215.26569	-647.78192	-65.12731	164.01096	-712.16309	153.33762	216.16862	-767.01227	227.29761	205.39748	-605.62329	-71.12200	159.22878	-882.60150	296.09842	144.62836	-674.16406	56.04222	156.15053	-598.68848	29.16883	166.21346	-547.10193	-26.51285	164.07776	-517.77960	-72.93211	143.78014	-674.90735	171.26820	157.58768	-591.27820	217.42192	173.67885	-623.58838	306.00668	159.01878	-528.23962	304.12503	146.30989	-679.15326	129.27254	1848.26147				-589.60315	113.29350	1356.56055	-795.80609	178.63321	184.39580	-554.81140	254.99184	164.57295	-659.91980	297.63687	157.96025	-692.28064	-63.66006	1537.99854	-783.67456	100.57992	1049.83716	-747.61328	-43.42881	489.51236	-756.09680	-18.14407	207.80734	-875.85034	-78.68372	141.27127	-644.31024	-68.50680	872.18201	-667.32990	-57.21684	756.99463	-694.04681	-31.99732	616.80237	-703.06635	-29.64581	568.82446	-586.38556	247.50084	1063.95813	-685.19281	78.18637	573.56549	
3	0.040	-703.84412	298.57883	1529.04456	-579.66711	-0.10705	1052.88098	-670.14764	291.10394	871.66840	-571.46423	1.49830	803.15314	-575.67395	226.43661	791.10809	-681.12994	274.42712	742.52332	-714.68829	254.47742	642.50476	-683.13422	147.06892	575.59473	-719.63751	249.71942	575.80377	-656.38354	20.40945	518.53473	-667.56262	208.32138	533.51239	-761.16602	259.62332	502.60135	-792.37885	38.49669	173.92320	-718.84216	72.10202	215.27846	-647.78192	-65.12731	164.01096	-712.14954	153.37750	216.18062	-767.25183	227.22536	205.56517	-605.70557	-71.25288	159.23352	-882.58807	296.23279	144.70149	-673.92188	55.82016	156.27553	-598.73169	29.08077	165.88942	-547.17645	-26.52398	164.13785	-517.75140	-72.75204	143.71698	-675.02136	171.50491	157.35144	-591.24969	217.30486	173.64430	-623.52887	305.89005	159.05806	-528.23962	304.12503	146.30989	-678.32446	128.98204	1848.38574				-588.99176	113.51517	1356.66956	-795.95978	178.60231	184.26079	-554.94324	254.97581	164.73755	-659.84296	297.35754	158.03448	-691.70013	-63.79782	1538.05408	-783.44110	100.67126	1050.00891	-747.67523	-43.26948	489.50150	-756.17657	-18.11026	207.73065	-875.92114	-78.60780	141.28317	-644.12390	-68.33964	872.09552	-667.11652	-57.54000	757.16821	-694.15021	-31.81450	616.82336	-703.23779	-29.25387	568.71930	-586.25299	247.34669	1063.76233	-685.36505	78.19294	573.41187	
4	0.060	-703.47748	298.78494	1529.11218	-579.57080	0.03803	1052.75989	-670.02350	291.38577	872.00714	-571.13214	0.95804	803.03943	-575.63666	226.34470	790.95105	-681.12994	274.42712	742.52332	-714.77570	254.38007	642.48248	-683.04431	147.23906	575.76086	-719.70221	249.89029	575.73334	-656.18750	20.27194	518.59955	-667.44220	208.37703	533.69653	-761.00031	259.48865	502.35510	-792.35089	38.63918	174.04192	-718.78607	72.21507	215.10925	-647.78192	-65.12731	164.01096	-712.14954	153.37750	216.18062	-767.26398	227.61931	205.65297	-605.54565	-71.10192	159.34618	-882.50470	296.02646	144.50813	-673.83563	55.93843	156.31505	-598.57190	29.03227	166.02017	-547.18311	-26.42957	164.16180	-517.74078	-72.73084	143.75500	-674.88214	171.41507	157.49158	-591.18994	217.44658	173.51761	-623.57684	305.95349	159.12935	-528.24139	304.17792	146.49892	-677.23688	128.92886	1848.38770				-588.53326	113.49129	1356.59546	-795.87170	178.54128	184.25214	-554.96143	254.93967	164.69540	-659.79626	297.47055	158.07811	-691.44293	-63.84579	1538.05225	-783.45404	100.47918	1050.31824	-747.77905	-43.33557	489.53000	-756.14648	-18.10010	207.80161	-875.85522	-78.73365	141.22168	-644.10602	-68.38980	872.08337	-667.25067	-57.36007	757.08771	-694.15021	-31.81450	616.82336	-703.14789	-29.32865	568.89966	-586.18439	247.75296	1063.82581	-685.54858	78.17209	573.26392	
5	0.080	-702.72748	298.66824	1529.06750	-579.50970	0.05209	1052.73389	-670.03870	291.61188	872.05762	-571.59247	1.72275	802.98181	-575.62042	226.43892	791.02417	-681.00110	274.33939	742.48676	-714.85382	254.43550	642.36292	-683.04431	147.23906	575.76086	-719.70221	249.89029	575.73334	-657.36267	20.81201	518.26593	-667.49249	208.41473	533.60883	-761.31024	259.81842	502.78290	-792.35089	38.63918	174.04192	-718.70856	72.41798	215.31462	-647.78192	-65.12731	164.01096	-712.33447	153.37245	216.15529	-767.12939	227.39766	205.59377	-605.67767	-71.39632	159.17725	-882.57764	296.19299	144.67506	-674.02533	56.05623	156.33168	-598.69287	29.07709	166.10678	-547.16968	-26.40542	164.12373	-517.82220	-72.69213	143.69135	-674.90735	171.26820	157.58768	-591.26538	217.45100	173.54799	-623.51910	305.93295	159.04030	-528.20941	304.30365	146.60254	-676.37579	129.01532	1848.29407				-588.15607	113.54760	1356.37708	-796.06299	178.62685	184.23737	-554.93658	255.00311	164.61893	-659.84296	297.35754	158.03448	-691.05756	-63.75389	1538.06506	-783.26276	100.72192	1050.21716	-747.86853	-43.34932	489.40750	-756.11481	-18.22886	207.74890	-875.85522	-78.73365	141.22168	-644.12744	-68.47629	872.04181	-667.18866	-57.37232	756.99902	-694.15558	-31.96361	616.96387	-703.36932	-29.31719	568.64063	-586.18439	247.75296	1063.82581	-685.73633	78.00870	573.22638	
6	0.100	-702.11194	298.55331	1529.01733	-579.15222	-0.36425	1053.26123	-670.11237	291.56259	871.93817	-571.86810	1.81933	802.90509	-575.62042	226.43892	791.02417	-681.14624	274.51428	742.42053	-714.76660	254.46503	642.42810	-682.71594	147.42070	575.55286	-719.59790	250.00748	575.76514	-657.30780	20.89671	518.45129	-667.52374	208.39592	533.72052	-761.19629	259.75092	502.60287	-792.33759	38.60877	174.09276	-718.54584	72.20964	214.99350	-647.69733	-65.03101	163.95831	-711.97815	153.34267	216.19394	-767.12946	227.12968	205.66396	-605.70557	-71.25288	159.23352	-882.53406	296.09598	144.57982	-674.29584	56.02425	156.22060	-598.74567	29.03537	166.23653	-547.11926	-26.44981	164.12259	-517.75922	-72.63500	143.86961	-675.02136	171.50491	157.35144	-591.11682	217.36809	173.70023	-623.61920	305.93906	159.23518	-528.20990	304.37756	146.57051	-675.22900	128.88177	1848.30188				-588.03607	113.77271	1356.26221	-795.87170	178.54128	184.25214	-555.00378	254.94398	164.63283	-659.81635	297.57581	157.96466	-690.51685	-63.55032	1537.94727	-783.15338	100.88329	1050.17444	-748.05188	-43.40512	489.53711	-756.14648	-18.10010	207.80161	-875.85522	-78.73365	141.22168	-644.24133	-68.32195	872.14478	-667.21497	-57.46236	757.10620	-694.25537	-31.85982	617.21228	-703.61145	-29.23551	568.76361	-585.89966	247.95979	1063.84595	-685.73633	78.00870	573.22638	
7	0.120	-701.74609	298.60666	1529.04187	-579.75665	-0.53176	1053.65234	-669.99591	291.53745	871.82904	-571.56122	1.43740	802.90009	-575.66223	226.47276	790.70526	-681.00110	274.33939	742.48676	-714.90088	254.64197	642.43573	-683.00507	147.34851	575.85620	-719.61249	249.95329	575.54669	-657.58478	20.66955	518.19104	-667.49249	208.41473	533.60883	-761.20978	259.95227	502.79034	-792.59521	38.58724	174.18399	-718.87738	72.52651	215.26569	-647.78192	-65.12731	164.01096	-712.28021	153.42325	216.29689	-767.31567	227.35826	205.74190	-605.64349	-71.16370	159.14978	-882.46844	296.17334	144.71791	-674.16406	56.04222	156.15053	-598.86493	29.05367	166.13019	-547.12604	-26.56805	164.13702	-517.75922	-72.63500	143.86961	-675.02136	171.50491	157.35144	-591.20300	217.49750	173.41774	-623.56732	305.86237	159.17419	-528.24139	304.17792	146.49892	-674.32263	128.84669	1848.33362				-587.85077	113.75257	1355.97546	-795.92731	178.61603	184.31126	-555.00378	254.94398	164.63283	-659.75952	297.37927	157.95247	-690.04547	-63.56553	1537.84363	-783.19727	100.77466	1050.40503	-748.22333	-43.30037	489.58279	-756.20642	-18.26959	207.84227	-875.87335	-78.57735	141.34627	-644.17267	-68.34438	872.22620	-667.34430	-57.43198	757.20221	-694.09680	-32.09119	617.09601	-703.97058	-29.57718	569.10657	-586.01752	248.15173	1063.75195	-685.96979	78.07471	573.02722	
8	0.140	-701.17786	298.76929	1528.96179	-579.49408	-0.37707	1053.60938	-670.10022	291.64362	871.80408	-572.19128	2.07710	802.75848	-575.70972	226.65292	790.97083	-681.14624	274.51428	742.42053	-714.89996	254.70413	642.32367	-683.00507	147.34851	575.85620	-719.68933	250.30011	575.57959	-657.58398	20.94043	518.26178	-667.42310	208.46288	533.55988	-761.18622	259.98627	502.44550	-792.54541	38.69070	174.41261	-718.78607	72.21507	215.10925	-647.78192	-65.12731	164.01096	-712.00513	153.29648	216.49883	-767.29950	227.50377	205.50349	-605.78552	-71.30292	159.31837	-882.57263	296.24466	144.72812	-674.16406	56.04222	156.15053	-598.73169	29.08077	165.88942	-547.16968	-26.62658	164.04776	-517.91791	-72.62004	143.85312	-675.13367	171.37234	157.40945	-591.20691	217.37152	173.61952	-623.60193	306.03918	159.06268	-528.24139	304.17792	146.49892	-673.29376	128.76534	1848.43274				-587.31122	113.70819	1355.82422	-795.87170	178.54128	184.25214	-554.80151	254.84962	164.58618	-659.89557	297.56253	158.03363	-689.70099	-63.63147	1537.78992	-783.23688	100.87064	1050.40979	-748.27332	-43.24674	489.69177	-756.25562	-18.11606	207.81018	-875.85522	-78.73365	141.22168	-644.28015	-68.11722	872.03510	-667.40411	-57.53123	757.25165	-694.43182	-32.15878	617.36902	-703.94501	-29.39194	568.82874	-586.02698	248.16896	1063.65955	-686.19366	78.18393	573.12390	
